<svg width="48" height="48" viewBox="0 0 48 48" fill="none" xmlns="http://www.w3.org/2000/svg">
<path fill-rule="evenodd" clip-rule="evenodd" d="M37.4399 3.33014C35.2484 2.81398 32.9325 2.8856 30.7201 3.66872V39.5209L30.9613 39.3382L30.9623 39.3375C31.8392 38.6734 32.8416 37.9143 34 37.0326C35.1066 36.1912 36.2726 35.2892 37.4399 34.3237V3.33014ZM40.7999 31.3207V4.63569C44.9264 6.92612 48 11.451 48 17.1142C48 22.7664 44.7444 27.4586 40.7999 31.3207ZM24 9.14681C25.0089 7.63994 26.1449 6.43436 27.3601 5.50393V42.0887C25.9109 43.2224 24.9961 44.0079 24 45C22.905 43.9094 21.8849 43.1001 20.16 41.7831V5.15383C21.5563 6.12472 22.8594 7.44323 24 9.14681ZM16.8 3.51199C14.5711 2.8312 12.2547 2.85587 10.08 3.46272V33.8668C11.403 34.9869 12.73 36.0322 13.9728 37.0112L13.9731 37.0114L14 37.0326C15.0537 37.8624 15.9794 38.5822 16.8 39.2151V3.51199ZM0 17.2098C0 11.7282 2.83744 7.3145 6.71997 4.93369V30.7937C3.00772 27.066 0 22.6132 0 17.2098Z" fill="#3E97BD"/>
</svg>
