<svg width="40" height="40" viewBox="0 0 40 40" fill="none" xmlns="http://www.w3.org/2000/svg">
<path d="M19.9986 6.66675C12.6368 6.66675 6.6665 12.7873 6.6665 20.3379C6.6665 26.3779 10.4866 31.5015 15.7849 33.3092C16.4519 33.4351 16.695 33.0129 16.695 32.6504C16.695 32.3264 16.6836 31.4662 16.677 30.3257C12.9683 31.1515 12.1858 28.4928 12.1858 28.4928C11.5793 26.9134 10.7051 26.4929 10.7051 26.4929C9.4945 25.6453 10.7968 25.6621 10.7968 25.6621C12.1351 25.7586 12.839 27.0711 12.839 27.0711C14.0283 29.16 15.96 28.5566 16.7196 28.2066C16.8407 27.3237 17.1853 26.7212 17.566 26.3796C14.6054 26.0347 11.4925 24.8614 11.4925 19.6229C11.4925 18.1307 12.0123 16.9096 12.8652 15.9546C12.7277 15.6088 12.2701 14.2182 12.9961 12.3366C12.9961 12.3366 14.1151 11.9691 16.6623 13.7382C17.7256 13.4344 18.8666 13.2833 20.0002 13.2774C21.1331 13.2833 22.2733 13.4344 23.3382 13.7382C25.8838 11.9691 27.0011 12.3366 27.0011 12.3366C27.7287 14.2182 27.2712 15.6088 27.1345 15.9546C27.989 16.9096 28.5047 18.1307 28.5047 19.6229C28.5047 24.8748 25.3869 26.0305 22.4173 26.3687C22.8954 26.7908 23.3218 27.625 23.3218 28.9007C23.3218 30.7277 23.3054 32.2022 23.3054 32.6504C23.3054 33.0163 23.5461 33.4418 24.2222 33.3083C29.5164 31.4964 33.3332 26.3762 33.3332 20.3379C33.3332 12.7873 27.3629 6.66675 19.9986 6.66675" fill="#F25940"/>
</svg>
