<svg xmlns="http://www.w3.org/2000/svg" width="40" height="35" viewBox="0 0 40 35">
  <path fill="#00AB6B" fill-rule="evenodd" d="M28.1476091,20.6047727 C27.4908091,21.2574432 26.6056091,21.6328977 25.7148091,21.6328977 C24.9312091,21.6328977 24.2052091,21.3429545 23.6716091,20.8171591 L15.6064091,12.7930114 L14.8760091,13.5188636 L17.6620091,16.2886364 L8.63200914,25.2673295 C8.36560914,25.5326136 8.15200914,25.8388636 7.99200914,26.1769318 C7.74200914,26.703125 7.63920914,27.2826136 7.68840914,27.858125 C5.30440914,25.4634091 3.99600914,22.4239773 4.00000914,19.2954545 C4.00400914,16.3053409 5.20200914,13.4743182 7.37280914,11.3285795 C9.54240914,9.18323864 12.4224091,8 15.4832091,8 C17.2924091,8 19.0156091,8.40409091 20.6076091,9.19517045 C21.2556091,9.51335227 21.8872091,9.90511364 22.4824091,10.3656818 L22.7656091,10.5860227 L28.3652091,16.1502273 C29.5344091,17.3211364 29.4400091,19.3193182 28.1476091,20.6047727 Z M21.7844091,20.3884091 L12.7552091,29.3671023 C12.3328091,29.783125 11.7620091,30.0157955 11.1596091,30.0157955 C10.5152091,30.0157955 9.90000914,29.7588636 9.43240914,29.2939205 C8.96480914,28.829375 8.70680914,28.2216477 8.70680914,27.5765341 C8.70680914,26.9731818 8.93560914,26.41 9.35880914,25.99 L18.3880091,17.0113068 L21.7844091,20.3884091 Z M44.0000091,19.2954545 C44.0036091,22.4446591 42.6788091,25.5 40.2664091,27.9026705 C38.8308091,29.3261364 37.1772091,30.9703409 35.4868091,32.6511364 L25.7312091,42.2697727 C25.3088091,42.6897727 24.7424091,42.9184659 24.1352091,42.9184659 C23.4868091,42.9184659 22.8716091,42.6615341 22.4080091,42.1961932 C21.9528091,41.7431818 21.6984091,41.1481818 21.6860091,40.5197727 C21.6736091,39.9040909 21.9032091,39.3246023 22.3344091,38.891875 L31.8188091,29.4569886 L30.9336091,28.575625 L21.4484091,38.0117045 C21.0256091,38.4277273 20.4556091,38.6596023 19.8524091,38.6596023 C19.2084091,38.6596023 18.5932091,38.4026705 18.1248091,37.9385227 C17.6576091,37.4731818 17.3992091,36.8654545 17.3992091,36.2211364 C17.3992091,35.6169886 17.6288091,35.0538068 18.0512091,34.6338068 L27.5360091,25.198125 L26.5276091,24.1950568 L17.0376091,33.6259659 C16.6152091,34.0463636 16.0488091,34.2746591 15.4420091,34.2746591 C14.7940091,34.2746591 14.1780091,34.0177273 13.7144091,33.5535795 C13.2592091,33.1001705 13.0048091,32.5047727 12.9924091,31.8767614 C12.9756091,31.2610795 13.2096091,30.6811932 13.6404091,30.2484659 L22.6700091,21.2705682 L22.9448091,21.5438068 C23.6752091,22.2660795 24.6596091,22.6618182 25.7140091,22.6618182 C26.8672091,22.6618182 28.0204091,22.1761932 28.8776091,21.3322159 C30.5680091,19.6430682 30.6660091,16.9957955 29.0908091,15.4295455 L24.6932091,11.0557386 C26.8260091,9.08181818 29.5908091,8.00039773 32.5168091,8.00039773 C35.5728091,8.00039773 38.4532091,9.18363636 40.6272091,11.329375 C42.7980091,13.4743182 43.9964091,16.3053409 44.0000091,19.2954545 Z" transform="translate(-4 -8)"/>
</svg>
