<svg width="48" height="48" viewBox="0 0 48 48" fill="none" xmlns="http://www.w3.org/2000/svg">
<g clip-path="url(#clip0)">
<g filter="url(#filter0_d)">
<path fill-rule="evenodd" clip-rule="evenodd" d="M24 48C37.2548 48 48 37.2548 48 24C48 10.7452 37.2548 0 24 0C10.7452 0 0 10.7452 0 24C0 37.2548 10.7452 48 24 48Z" fill="url(#paint0_linear)"/>
</g>
<path fill-rule="evenodd" clip-rule="evenodd" d="M21.785 33.8438V22.1105C21.785 21.3436 21.7339 20.7237 21.6316 20.2508C21.5294 19.7779 21.3952 19.4073 21.2291 19.1389C21.063 18.8704 20.8585 18.6915 20.6157 18.602C20.3729 18.5126 20.1237 18.4678 19.8681 18.4678C19.4336 18.4678 19.0311 18.6084 18.6605 18.8896C18.2899 19.1708 18.0407 19.5287 17.9129 19.9632V33.8438H13.3125V14.6718H16.9545L17.4912 16.7807H17.6062C17.9896 16.0394 18.5519 15.4323 19.2931 14.9594C20.0343 14.4865 20.9032 14.25 21.9 14.25C22.7434 14.25 23.5485 14.4545 24.3152 14.8635C25.082 15.2725 25.6059 15.9883 25.8871 17.0108C26.2704 16.1161 26.8583 15.4323 27.6506 14.9594C28.4429 14.4865 29.299 14.25 30.2191 14.25C30.9092 14.25 31.529 14.3459 32.0785 14.5376C32.628 14.7293 33.1072 15.068 33.5161 15.5537C33.9251 16.0394 34.2381 16.6976 34.4554 17.5284C34.6726 18.3592 34.7812 19.4264 34.7812 20.7301V33.8438H30.1808V21.5737C30.1808 20.4234 29.9955 19.6182 29.6249 19.158C29.2543 18.6979 28.8007 18.4678 28.264 18.4678C27.8039 18.4678 27.4078 18.5765 27.0755 18.7938C26.7432 19.011 26.5132 19.3625 26.3854 19.8482V33.8438H21.785Z" fill="white"/>
</g>
<defs>
<filter id="filter0_d" x="0" y="0" width="48" height="48.0938" filterUnits="userSpaceOnUse" color-interpolation-filters="sRGB">
<feFlood flood-opacity="0" result="BackgroundImageFix"/>
<feColorMatrix in="SourceAlpha" type="matrix" values="0 0 0 0 0 0 0 0 0 0 0 0 0 0 0 0 0 0 127 0"/>
<feOffset dy="0.09375"/>
<feColorMatrix type="matrix" values="0 0 0 0 0 0 0 0 0 0 0 0 0 0 0 0 0 0 0.08 0"/>
<feBlend mode="normal" in2="BackgroundImageFix" result="effect1_dropShadow"/>
<feBlend mode="normal" in="SourceGraphic" in2="effect1_dropShadow" result="shape"/>
</filter>
<linearGradient id="paint0_linear" x1="-24" y1="24" x2="24" y2="72" gradientUnits="userSpaceOnUse">
<stop stop-color="#454B66"/>
<stop offset="0.497945" stop-color="#8360E3"/>
<stop offset="1" stop-color="#EF7A85"/>
</linearGradient>
<clipPath id="clip0">
<rect width="48" height="48" fill="white"/>
</clipPath>
</defs>
</svg>
