<svg width="48" height="48" viewBox="0 0 48 48" fill="none" xmlns="http://www.w3.org/2000/svg">
<path d="M10.9333 0C4.89502 0 0 4.89502 0 10.9333V37.0667C0 43.105 4.89502 48 10.9333 48H37.0667C43.105 48 48 43.105 48 37.0667V10.9333C48 4.89502 43.105 0 37.0667 0H10.9333Z" fill="#F25940"/>
<path d="M37.6126 36.3936H23.7694C21.9102 36.3936 20.1854 36.1136 18.595 35.5536C17.027 34.9712 15.6606 34.1536 14.4958 33.1008C13.3534 32.0256 12.4462 30.7264 11.7742 29.2032C11.1246 27.6576 10.7998 25.9216 10.7998 23.9952C10.7998 22.248 11.1246 20.6464 11.7742 19.1904C12.4462 17.712 13.3534 16.4464 14.4958 15.3936C15.6382 14.3184 16.9598 13.4896 18.4606 12.9072C19.9838 12.3024 21.5966 12 23.299 12C25.0014 12 26.603 12.3024 28.1038 12.9072C29.627 13.4896 30.9598 14.3184 32.1022 15.3936C33.2446 16.4464 34.1406 17.712 34.7902 19.1904C35.4622 20.6464 35.7982 22.248 35.7982 23.9952C35.7982 25.2496 35.6414 26.3584 35.3278 27.3216C35.0366 28.2624 34.6446 29.1024 34.1518 29.8416C33.659 30.5584 33.1102 31.1632 32.5054 31.656C31.923 32.1488 31.3518 32.5632 30.7918 32.8992V32.9664H37.6126V36.3936ZM23.1982 15.8304C22.0558 15.8304 20.9918 16.0432 20.0062 16.4688C19.043 16.872 18.203 17.4432 17.4862 18.1824C16.7918 18.9216 16.243 19.7952 15.8398 20.8032C15.4366 21.8112 15.235 22.9088 15.235 24.096C15.235 25.3056 15.4366 26.4368 15.8398 27.4896C16.243 28.52 16.803 29.416 17.5198 30.1776C18.2366 30.9168 19.0766 31.4992 20.0398 31.9248C21.0254 32.3504 22.1006 32.5632 23.2654 32.5632C24.4302 32.5632 25.5054 32.3504 26.491 31.9248C27.499 31.4992 28.3614 30.9168 29.0782 30.1776C29.795 29.416 30.355 28.52 30.7582 27.4896C31.1614 26.4368 31.363 25.3056 31.363 24.096C31.363 22.9088 31.1614 21.8112 30.7582 20.8032C30.355 19.7952 29.795 18.9216 29.0782 18.1824C28.3614 17.4432 27.499 16.872 26.491 16.4688C25.5054 16.0432 24.4078 15.8304 23.1982 15.8304Z" fill="white" fill-opacity="0.96"/>
</svg>
