<svg width="40" height="40" viewBox="0 0 40 40" fill="none" xmlns="http://www.w3.org/2000/svg">
<path fill-rule="evenodd" clip-rule="evenodd" d="M33.3332 12.5649C32.352 12.9999 31.2976 13.2939 30.1909 13.4261C31.3205 12.7492 32.1879 11.6772 32.5964 10.4C31.5394 11.0268 30.3685 11.482 29.1223 11.7274C28.1243 10.6643 26.7024 10 25.1289 10C22.1074 10 19.6578 12.449 19.6578 15.4697C19.6578 15.8984 19.7062 16.3158 19.7995 16.7162C15.2525 16.4881 11.2213 14.3105 8.5229 11.0012C8.05197 11.8091 7.78217 12.7487 7.78217 13.7511C7.78217 15.6487 8.74812 17.3229 10.2161 18.3038C9.31922 18.2754 8.47569 18.0294 7.73799 17.6197C7.7376 17.6425 7.7376 17.6654 7.7376 17.6884C7.7376 20.3386 9.62345 22.5494 12.1262 23.0518C11.6671 23.1768 11.1838 23.2436 10.6848 23.2436C10.3323 23.2436 9.98952 23.2094 9.65554 23.1455C10.3517 25.3186 12.3721 26.9 14.7662 26.9442C12.8938 28.4112 10.5348 29.2856 7.9716 29.2856C7.53003 29.2856 7.09451 29.2598 6.6665 29.2093C9.08766 30.7612 11.9635 31.6667 15.0531 31.6667C25.1161 31.6667 30.619 23.332 30.619 16.1039C30.619 15.8668 30.6137 15.6309 30.6032 15.3963C31.6721 14.6252 32.5997 13.6618 33.3332 12.5649" fill="#F25940"/>
</svg>
