<svg width="48" height="48" viewBox="0 0 48 48" fill="none" xmlns="http://www.w3.org/2000/svg">
<rect width="48" height="48" fill="white"/>
<path d="M10.9333 0C4.89502 0 0 4.89502 0 10.9333V37.0667C0 43.105 4.89502 48 10.9333 48H37.0667C43.105 48 48 43.105 48 37.0667V10.9333C48 4.89502 43.105 0 37.0667 0H10.9333Z" fill="#FF003D"/>
<path fill-rule="evenodd" clip-rule="evenodd" d="M23.9999 35.9999C30.6273 35.9999 35.9999 30.6273 35.9999 23.9999C35.9999 17.3725 30.6273 11.9999 23.9999 11.9999C17.3725 11.9999 11.9999 17.3725 11.9999 23.9999C11.9999 30.6273 17.3725 35.9999 23.9999 35.9999ZM23.9999 41.5999C33.7201 41.5999 41.5999 33.7201 41.5999 23.9999C41.5999 14.2797 33.7201 6.3999 23.9999 6.3999C14.2797 6.3999 6.3999 14.2797 6.3999 23.9999C6.3999 33.7201 14.2797 41.5999 23.9999 41.5999Z" fill="white" fill-opacity="0.32"/>
<path fill-rule="evenodd" clip-rule="evenodd" d="M21.2922 9.10759C21.2922 7.61218 22.5045 6.3999 23.9999 6.3999C33.7201 6.3999 41.5999 14.2797 41.5999 23.9999C41.5999 33.7201 33.7201 41.5999 23.9999 41.5999C14.2797 41.5999 6.3999 33.7201 6.3999 23.9999C6.3999 20.9626 7.17153 18.0975 8.5316 15.598C9.24635 14.2845 10.8906 13.7991 12.2042 14.5138C13.5177 15.2286 14.0031 16.8728 13.2884 18.1864C12.3497 19.9115 11.8153 21.8892 11.8153 23.9999C11.8153 30.7293 17.2705 36.1845 23.9999 36.1845C30.7293 36.1845 36.1845 30.7293 36.1845 23.9999C36.1845 17.2705 30.7293 11.8153 23.9999 11.8153C22.5045 11.8153 21.2922 10.603 21.2922 9.10759Z" fill="white"/>
</svg>
